<?xml version="1.0" standalone="no"?>
<!DOCTYPE svg PUBLIC "-//W3C//DTD SVG 1.0//EN" "http://www.w3.org/TR/2001/REC-SVG-20010904/DTD/svg10.dtd">
<svg xmlns="http://www.w3.org/2000/svg" xmlns:xlink="http://www.w3.org/1999/xlink" id="body_1" width="80" height="80">

<g transform="matrix(0.15625 0 0 0.15625 0 0)">
    <path d="M305.816 470.487C 305.816 452.145 305.816 398.53 305.816 398.53L305.816 398.53L206.184 398.53L206.184 453.881L228.32501 492.627L305.81702 503.69702L339.028 503.69702C 320.686 503.697 305.816 488.829 305.816 470.487z" stroke="none" fill="#ABECEC" fill-rule="nonzero" />
    <path d="M272.605 470.487L272.605 453.882L206.18301 453.882L206.18301 470.487C 206.18301 488.829 191.31502 503.698 172.97202 503.698L172.97202 503.698L305.815 503.698C 287.475 503.697 272.605 488.829 272.605 470.487z" stroke="none" fill="#D5F6F5" fill-rule="nonzero" />
    <path d="M474.638 44.281L441.427 44.281L474.638 398.53L507.849 354.249L507.849 77.492C 507.849 59.226 492.904 44.281 474.638 44.281z" stroke="none" fill="#027372" fill-rule="nonzero" />
    <path d="M474.638 77.492C 474.638 59.225998 459.693 44.281 441.427 44.281L441.427 44.281L37.362 44.281C 19.095999 44.281 4.151001 59.225998 4.151001 77.492L4.151001 77.492L4.151001 354.249L474.638 398.53L474.638 77.492z" stroke="none" fill="#02ACAB" fill-rule="nonzero" />
    <path d="M474.638 354.249L441.427 420.671L474.638 420.671C 492.904 420.671 507.849 405.72598 507.849 387.46L507.849 387.46L507.849 354.249L474.638 354.249z" stroke="none" fill="#ABECEC" fill-rule="nonzero" />
    <path d="M267.07 97.418L267.07 376.389L322.422 354.249L322.422 119.559L267.07 97.418" stroke="none" fill="#DFC136" fill-rule="nonzero" />
    <path d="M256 97.418L233.859 376.389L289.211 376.389L289.211 97.418L256 97.418" stroke="none" fill="#FEDC3D" fill-rule="nonzero" />
    <path d="M189.578 354.249L189.578 119.559L256 90.378L256 376.389L189.578 354.249" stroke="none" fill="#FFE777" fill-rule="nonzero" />
    <path d="M288.289 58.119L247.313 48.432L289.211 119.559L322.422 119.559L288.289 58.119" stroke="none" fill="#FFDBCC" fill-rule="nonzero" />
    <path d="M269.454 48.432L223.711 58.119L189.578 119.559L289.211 119.559L269.454 48.432" stroke="none" fill="#FFFFFF" fill-rule="nonzero" />
    <path d="M288.289 58.119L256 0L256 44.281L272.144 58.119L288.289 58.119" stroke="none" fill="#272727" fill-rule="nonzero" />
    <path d="M256 0L223.711 58.119L272.144 58.119L256 0" stroke="none" fill="#4D4D4D" fill-rule="nonzero" />
    <path d="M474.638 387.459L474.638 354.24802L4.151 354.24802L4.151 387.459C 4.151 405.725 19.096 420.67 37.362 420.67L37.362 420.67L441.427 420.67C 459.693 420.67 474.638 405.725 474.638 387.459z" stroke="none" fill="#D5F6F5" fill-rule="nonzero" />
    <path d="M405.448 512L106.55 512C 101.964005 512 98.247 508.284 98.247 503.697C 98.247 499.111 101.963005 495.39398 106.55 495.39398L106.55 495.39398L405.44702 495.39398C 410.03302 495.39398 413.75003 499.11 413.75003 503.697C 413.75 508.284 410.034 512 405.448 512z" stroke="none" fill="#81E3E2" fill-rule="nonzero" />
    <path d="M264.303 387.459C 264.303 389.75183 263.49237 391.70886 261.8711 393.3301C 260.24985 394.95142 258.29282 395.76205 256 395.76202C 253.70721 395.76205 251.75017 394.95142 250.12889 393.3301C 248.50764 391.70886 247.69702 389.75183 247.697 387.459C 247.69702 385.16623 248.50764 383.2092 250.12889 381.58792C 251.75017 379.96664 253.70721 379.156 256 379.156C 258.29282 379.156 260.24985 379.96664 261.8711 381.58792C 263.49237 383.2092 264.303 385.16623 264.303 387.459C 264.303 387.55566 264.30133 387.65225 264.29794 387.74878" stroke="none" fill="#027372" fill-rule="nonzero" />
</g>
</svg>