<?xml version="1.0" standalone="no"?>
<!DOCTYPE svg PUBLIC "-//W3C//DTD SVG 1.0//EN" "http://www.w3.org/TR/2001/REC-SVG-20010904/DTD/svg10.dtd">
<svg xmlns="http://www.w3.org/2000/svg" xmlns:xlink="http://www.w3.org/1999/xlink" id="body_1" width="80" height="80">

<g transform="matrix(0.15625 0 0 0.15625 0 0)">
	<g>
		<g>
            <path d="M471.6 253.1C 471.60004 312.6363 450.55078 363.45374 408.4522 405.55225C 366.3537 447.65076 315.53632 468.7 256 468.7C 196.46371 468.7 145.6463 447.65076 103.547775 405.55225C 61.449257 363.45374 40.399994 312.6363 40.399994 253.1C 40.399994 193.56372 61.449257 142.7463 103.547775 100.64778C 145.6463 58.549263 196.46371 37.5 256 37.5C 315.53632 37.5 366.3537 58.549263 408.4522 100.64778C 450.55078 142.7463 471.60004 193.56372 471.6 253.1C 471.60004 255.60889 471.55627 258.117 471.4687 260.62433" stroke="none" fill="#EEEDF2" fill-rule="nonzero" />
			<g>
                <path d="M445.1 250.8C 445.1 278.3 438.80002 304.3 427.6 327.3C 415.7 351.9 398.2 373.09998 376.80002 389.4C 368.7 395.5 360.1 400.9 351.1 405.5C 336.1 413.1 319.9 418.4 302.9 421.2C 302.9 421.2 302.9 421.2 302.8 421.2C 299.5 421.7 296.09998 422.2 292.8 422.5C 291.59998 422.6 290.4 422.7 289.3 422.8C 286.9 423 284.5 423.09998 282.09998 423.19998C 281.19998 423.19998 280.39996 423.3 279.49997 423.3C 278.39996 423.3 277.29996 423.3 276.29996 423.3C 263.19995 423.3 250.39996 421.8 238.09996 418.9C 235.39996 418.3 232.69997 417.6 230.09996 416.8C 222.59996 414.59998 215.29996 412 208.29996 408.8C 148.89996 382.09998 107.399956 321.4 107.399956 250.79999C 107.399956 213.29999 119.09995 178.69998 138.89996 150.4C 139.79996 149.09999 140.69997 147.79999 141.69997 146.5C 143.69997 143.8 145.69997 141.2 147.79997 138.7C 149.19997 137 150.69997 135.3 152.19997 133.7C 152.29997 133.59999 152.39996 133.5 152.49997 133.4C 152.99997 132.9 153.49997 132.29999 153.99997 131.79999C 154.39996 131.4 154.69997 130.99998 155.09998 130.59999C 155.39998 130.2 155.79997 129.9 156.09998 129.49998C 156.59998 128.99998 156.99997 128.49998 157.49997 128.09999C 157.99997 127.59999 158.39996 127.19999 158.89996 126.69999C 159.29996 126.29999 159.69997 125.89999 160.09996 125.59999C 160.49995 125.19999 160.79996 124.899994 161.19997 124.59999C 161.79997 123.99999 162.29997 123.49999 162.89996 122.99999C 163.29996 122.69999 163.59996 122.299995 163.99997 121.99999C 164.39996 121.69999 164.69997 121.299995 164.99997 120.99999C 165.59998 120.49999 166.19997 119.99999 166.79997 119.399994C 166.89998 119.299995 167.09998 119.2 167.19997 119.09999C 167.89996 118.49999 168.59996 117.79999 169.39996 117.19999C 170.09996 116.59999 170.79996 115.99999 171.59996 115.39999C 171.79996 115.19999 171.99995 114.999985 172.29996 114.89999C 173.09996 114.29999 173.89996 113.69999 174.69995 112.999985C 175.59995 112.29999 176.49995 111.69998 177.39995 110.999985C 178.29994 110.29999 179.19995 109.69998 180.09995 108.999985C 180.99994 108.39999 181.89995 107.69998 182.79994 107.09998C 182.79994 107.09998 182.89995 106.999985 182.89995 106.999985C 183.69995 106.499985 184.49995 105.89999 185.29994 105.39999C 185.39995 105.29999 185.59995 105.19999 185.69994 105.09998C 186.49994 104.59998 187.39993 103.999985 188.19994 103.499985C 189.29994 102.79999 190.49994 102.09998 191.59993 101.39999C 192.39993 100.89999 193.29993 100.39999 194.09993 99.89999C 218.49992 85.999985 246.49994 78.09999 276.39993 78.09999C 288.59995 78.09999 300.59995 79.399994 311.99994 81.99999C 315.89993 82.799995 319.79993 83.799995 323.59995 84.99999C 323.99994 85.09999 324.29996 85.19999 324.69995 85.299995C 371.99994 99.7 410.59995 134.7 430.59995 180.1C 432.19995 183.8 433.79996 187.6 435.09995 191.5C 435.09995 191.5 435.09995 191.5 435.09995 191.5C 441.5 210.1 445.1 230 445.1 250.8z" stroke="none" fill="#D3D5E7" fill-rule="nonzero" />
				<g>
                    <path d="M425.3 250.8C 425.3 278.3 418.9 304.3 407.5 327.3C 395.3 351.9 377.5 373.09998 355.6 389.4C 347.4 395.5 338.6 400.9 329.30002 405.5C 314.00003 413.1 297.50003 418.4 280.00003 421.2C 280.00003 421.2 279.90002 421.2 279.90002 421.2C 276.50003 421.7 273.10004 422.2 269.60004 422.5C 268.40002 422.6 267.20004 422.7 266.00003 422.8C 263.60004 423 261.10004 423.09998 258.60004 423.19998C 257.70004 423.19998 256.90002 423.3 256.00003 423.3C 254.90002 423.3 253.80003 423.3 252.70003 423.3C 239.30003 423.3 226.20003 421.8 213.70003 418.9C 210.90002 418.3 208.20003 417.6 205.50003 416.8C 197.80003 414.59998 190.40002 412 183.20003 408.8C 122.50003 382.09998 80.10003 321.4 80.10003 250.79999C 80.10003 213.29999 92.00003 178.69998 112.30003 150.4C 113.200035 149.09999 114.200035 147.79999 115.10004 146.5C 117.10004 143.8 119.200035 141.2 121.40004 138.7C 122.90004 137 124.30004 135.3 125.90004 133.7C 126.00004 133.59999 126.10004 133.5 126.20004 133.4C 126.70004 132.9 127.20004 132.29999 127.70004 131.79999C 128.10004 131.4 128.50005 130.99998 128.80005 130.59999C 129.20004 130.2 129.50005 129.9 129.90005 129.49998C 130.40005 128.99998 130.80005 128.49998 131.30005 128.09999C 131.80005 127.59999 132.20004 127.19999 132.70004 126.69999C 133.10004 126.29999 133.50005 125.89999 133.90004 125.59999C 134.30003 125.19999 134.60004 124.899994 135.00005 124.59999C 135.60005 123.99999 136.20004 123.49999 136.80005 122.99999C 137.20004 122.69999 137.50005 122.299995 137.90005 121.99999C 138.30005 121.69999 138.60005 121.299995 139.00006 120.99999C 139.60007 120.49999 140.20006 119.99999 140.80006 119.399994C 140.90007 119.299995 141.10007 119.2 141.20006 119.09999C 141.90005 118.49999 142.70006 117.79999 143.40005 117.19999C 144.10005 116.59999 144.90005 115.99999 145.60005 115.39999C 145.80005 115.19999 146.00005 114.999985 146.30005 114.89999C 147.10005 114.29999 147.90005 113.69999 148.70004 112.999985C 149.60004 112.29999 150.50005 111.69998 151.40004 110.999985C 152.30003 110.29999 153.20004 109.69998 154.20004 108.999985C 155.10004 108.39999 156.00005 107.69998 157.00005 107.09998C 157.00005 107.09998 157.10005 106.999985 157.10005 106.999985C 157.90005 106.499985 158.70006 105.89999 159.60005 105.39999C 159.70006 105.29999 159.90005 105.19999 160.00005 105.09998C 160.80005 104.59998 161.70004 103.999985 162.50005 103.499985C 163.60005 102.79999 164.80005 102.09998 166.00005 101.39999C 166.40004 101.09998 166.80005 100.89999 167.30005 100.69999C 167.70004 100.39999 168.20004 100.19999 168.60005 99.99999C 193.50005 86.09999 222.20004 78.2 252.70004 78.2C 265.20004 78.2 277.40005 79.5 289.10004 82.1C 293.10004 82.9 297.10004 83.9 300.90002 85.1C 301.30002 85.2 301.60004 85.299995 302.00003 85.4C 350.30002 99.8 389.80005 134.8 410.2 180.20001C 411.90002 183.90001 413.40002 187.70001 414.80002 191.6C 414.80002 191.6 414.80002 191.6 414.80002 191.6C 421.6 210.1 425.3 230 425.3 250.8z" stroke="#1E247E" stroke-width="6" fill="#DAE6FD" fill-rule="nonzero" />
					<g>
                        <path d="M286.7 386.3C 283.1 387.9 274.6 405.3 269.6 422.59998C 268.4 422.69998 267.2 422.8 266 422.89996C 263.6 423.09998 261.1 423.19995 258.6 423.29996C 257.7 423.29996 256.9 423.39996 256 423.39996C 254.9 423.39996 253.8 423.39996 252.7 423.39996C 239.3 423.39996 226.2 421.89996 213.7 418.99997C 210.9 418.39996 208.2 417.69998 205.5 416.89996C 197.7 406.69995 192.2 394.09998 194.9 386.39996C 198.09999 377.09998 198.9 370.99997 192.4 366.09998C 185.9 361.19998 174.7 357.69998 176.2 342.89996C 177.7 328.09998 166.09999 329.19995 163.5 324.99997C 162.2 322.89996 159.1 316.99997 154.9 314.69998C 150.09999 311.99997 146 311.8 142.5 307.59998C 141.3 306.19998 139.8 304.99997 137.8 304.59998C 131.90001 303.49997 132.3 298.49997 127.700005 291.69998C 123.100006 284.9 123.100006 278.8 123.100006 278.8C 121.100006 270.5 107.700005 263.5 107.700005 263.5C 106.4 262.4 104.50001 262.1 102.9 263C 101.1 263.9 98.9 264.2 96.9 261.9C 92.200005 256.5 93.5 254.29999 95.1 251C 96.2 248.7 97.4 246.5 98.799995 244.3C 100.899994 240.8 103.1 234.7 98.799995 228.2C 92.2 218.09999 107.99999 200.7 107.99999 200.7C 121.59999 188.7 124.7 183.4 115.899994 174.59999C 107.09999 165.79999 124.49999 147.29999 124.49999 147.29999C 124.799995 146.19998 124.69999 144.99998 124.19999 143.69998C 122.99999 140.29999 123.59999 136.59998 125.89999 133.89998C 125.999985 133.79997 126.09998 133.69998 126.19999 133.59998C 126.69999 133.09998 127.19999 132.49997 127.69999 131.99997C 128.09999 131.59998 128.49998 131.19997 128.79999 130.79997C 129.19998 130.39998 129.49998 130.09998 129.9 129.69997C 130.4 129.19997 130.79999 128.69997 131.29999 128.29997C 131.79999 127.79997 132.19998 127.39997 132.69998 126.89997C 133.09998 126.49997 133.49998 126.09997 133.89998 125.79997C 134.29997 125.39997 134.59998 125.099976 134.99998 124.79997C 135.59999 124.199974 136.19998 123.699974 136.79999 123.199974C 137.19998 122.89997 137.49998 122.49998 137.9 122.199974C 138.29999 121.89997 138.59999 121.49998 139 121.199974C 139.6 120.699974 140.2 120.199974 140.8 119.599976C 140.90001 119.49998 141.1 119.39998 141.2 119.29997C 141.9 118.699974 142.7 117.99997 143.4 117.39997C 144.09999 116.79997 144.9 116.199974 145.59999 115.59997C 145.79999 115.39997 145.99998 115.19997 146.29999 115.09997C 147.09999 114.49997 147.9 113.89997 148.69998 113.19997C 149.59998 112.49997 150.49998 111.89996 151.39998 111.19997C 152.29997 110.49997 153.19998 109.89996 154.19998 109.19997C 155.09998 108.59997 155.99998 107.89996 156.99998 107.299965C 156.99998 107.299965 157.09999 107.19997 157.09999 107.19997C 157.9 106.69997 158.7 106.09997 159.59999 105.59997C 159.7 105.49997 159.9 105.39997 159.99998 105.299965C 160.79999 104.799965 161.69998 104.19997 162.49998 103.69997C 163.59999 102.99997 164.79999 102.299965 165.99998 101.59997C 166.39998 101.299965 166.79999 101.09997 167.29999 100.89997C 167.4 102.29997 167.79999 103.59997 168.9 104.49997C 171.9 106.79997 171.29999 112.89997 171.7 114.99997C 172.09999 117.09997 174 114.79997 174.5 112.39997C 175 110.09997 176.6 105.39997 182.7 104.89997C 188.8 104.39997 189.7 99.99997 192.3 102.59997C 194.90001 105.19997 200.7 103.99997 202.8 104.19997C 204.90001 104.39996 207.5 103.89996 208.90001 107.19997C 210.3 110.49997 214.00002 109.799965 212.40001 113.799965C 210.8 117.799965 209.90001 117.99996 212.8 119.39996C 215.7 120.799965 214.90001 122.799965 216.8 125.19997C 221.7 131.49997 218.3 136.19997 213.7 133.99997C 209.2 131.79997 211.7 131.49997 204.3 134.19997C 199.2 135.99997 196.8 131.29997 195.8 128.39996C 195 125.99996 191.40001 126.49996 191.3 128.99997C 191.2 131.49997 190.90001 132.19997 189.5 133.49997C 187.6 135.29997 185.1 139.09998 180.8 135.49997C 179.3 134.29997 177.1 134.49997 176.1 136.19997C 175.3 137.49997 174.70001 139.29997 174.70001 141.59996C 174.70001 147.19997 169.6 145.09996 166.80002 149.29996C 164.00002 153.49995 160.90002 160.09996 165.70001 161.69995C 170.50002 163.29996 175.90001 164.99995 177.50002 169.39995C 178.70001 172.69995 184.80002 176.79994 188.90001 177.69995C 193.3 178.69995 197.20001 181.29996 200.00002 184.79996C 201.60002 186.69995 203.40001 189.09996 205.60002 192.09996C 216.10002 206.69997 204.10002 206.49995 204.10002 206.49995C 204.10002 206.49995 190.40002 207.59996 191.00002 219.29996C 191.60002 230.99995 194.20001 236.89996 185.10002 245.89996C 176.00002 254.99997 168.40002 240.99997 167.80002 250.89996C 167.50002 256.89996 165.10002 259.99997 162.90002 261.69995C 161.30002 262.99994 159.80002 264.39996 158.40002 265.99994C 155.90002 268.79993 149.90002 270.29993 145.10002 270.49994C 145.10002 270.49994 133.70003 280.89993 137.30002 289.29993C 140.90002 297.69992 137.50002 298.39993 142.80002 298.19992C 148.10002 297.9999 155.80002 298.5999 166.00002 309.9999C 176.20001 321.3999 194.20001 298.8999 213.00002 309.9999C 231.90001 321.0999 230.40001 318.9999 235.80002 324.3999C 241.10002 329.7999 256.2 318.9999 265.7 327.3999C 266 327.6999 266.30002 327.8999 266.6 328.1999C 275.2 335.7999 295.5 335.99988 294 347.3999C 293.4 352.3999 288.5 364.8999 293.3 367.9999C 297.2 370.3 294.3 382.8 286.7 386.3z" stroke="#1E247E" stroke-width="6" fill="#FFFFFF" fill-rule="nonzero" />
                        <path d="M249.9 135.2C 250.09999 141.3 251 143.5 254 145.9C 257 148.4 258.3 149.4 260.3 150.59999C 260.3 150.59999 264.9 153.2 264.9 153.2C 266.8 154.3 272.1 148.2 272 146C 271.7 139.9 269.6 136.6 270 134.6C 270.5 132.3 274.9 134.6 273.7 131.3C 272.5 128 275.30002 126.4 277.2 122.4C 279.1 118.4 277.30002 116.6 273.5 114.700005C 263.4 109.600006 270.3 105.8 270.3 105.8C 274.5 105.600006 271.8 98 269 95.8C 266.2 93.600006 258.8 98.5 251.6 94.8C 244.40001 91.100006 245 97.4 245.90001 98.8C 245.90001 98.8 248.40001 107.9 240.20001 109.100006C 232.00002 110.3 222.90001 110.3 226.70001 118.200005C 230.50002 126.100006 249.8 127.7 249.9 135.2z" stroke="#1E247E" stroke-width="6" fill="#FFFFFF" fill-rule="nonzero" />
                        <path d="M296.5 131.1C 294.4 130.20001 294.7 127.100006 297 126.600006C 297.5 126.50001 298.1 126.40001 298.7 126.50001C 301.5 126.700005 302.7 119.700005 308.5 126.50001C 314.3 133.3 310.4 138.20001 305.2 137C 300.1 135.8 301.7 132.1 298.2 131.6C 297.5 131.5 297 131.3 296.5 131.1z" stroke="#1E247E" stroke-width="6" fill="#FFFFFF" fill-rule="nonzero" />
                        <path d="M334.7 123.3C 336.80002 123.600006 338.90002 124.100006 340.80002 125C 346.80002 127.8 357.7 135 358.40002 150.2C 358.90002 161.2 361.10004 167.2 363.10004 170.3C 364.20004 172 364.10004 174.1 363.10004 175.8C 361.30005 178.6 363.10004 183.40001 365.00003 187C 367.50003 191.9 365.20004 190.8 369.40002 192.4C 373.60004 194 380.7 193.9 379.30002 189C 377.90002 184.1 386.2 188.6 386.80002 187.4C 393.6 174 380.30002 179.2 382.7 172.5C 382.7 172.5 378.7 161.8 383.6 164.1C 388.5 166.40001 393.9 169.90001 395.80002 174.6C 397.7 179.3 400.00003 176 399.80002 172.70001C 399.6 169.40001 406.80002 173.20001 407.30002 179.00002C 407.40002 180.90001 408.7 181.00002 410.40002 180.10002C 390.00003 134.70001 350.60004 99.70002 302.2 85.20002C 301.90002 85.30002 301.5 85.20002 301.1 84.90002C 297.2 83.80002 293.30002 82.80002 289.30002 81.90002C 288.90002 84.30002 288.7 86.70002 288.40002 87.60001C 288.40002 87.60001 284.2 94.40002 289.7 98.20001C 295.2 102.00001 306.40002 92.90001 313.5 108.10001C 319 120.2 330 122.7 334.7 123.3z" stroke="#1E247E" stroke-width="6" fill="#FFFFFF" fill-rule="nonzero" />
                        <path d="M382.4 296.4C 390 300.8 386.4 307.1 388.9 309.69998C 391.5 312.3 392.4 319.69998 396.8 317.4C 401.19998 315.1 401.5 304.8 405.4 305.5C 409.4 306.2 413.1 301.2 412.9 308.3C 412.69998 315.4 405.5 317.69998 407.3 327.3C 418.69998 304.19998 425.19998 278.3 425.19998 250.79999C 425.19998 229.99998 421.49997 210.09999 414.8 191.69998C 414.8 191.69998 414.8 191.69998 414.8 191.69998C 414.69998 191.49998 411.8 186.29999 410.19998 193.09998C 410.19998 193.09998 407.49997 206.09998 390.09998 200.49997C 385.89996 199.19997 382.19998 203.19997 381.89996 209.89996C 381.69995 216.69997 377.89996 216.19997 379.59998 220.59996C 379.59998 220.59996 390.69998 233.99995 379.19998 248.59996C 367.7 263.4 365.2 286.4 382.4 296.4z" stroke="#1E247E" stroke-width="6" fill="#FFFFFF" fill-rule="nonzero" />
					</g>
				</g>
				<g>
                    <path d="M225.6 367.3L233.3 373.2" stroke="#1E247E" stroke-width="2.5" stroke-linecap="square" fill="#69ADF7" fill-rule="nonzero" />
                    <path d="M225.6 360L240.9 371.7" stroke="#1E247E" stroke-width="2.5" stroke-linecap="square" fill="#69ADF7" fill-rule="nonzero" />
                    <path d="M236.7 361L240.9 364.2" stroke="#1E247E" stroke-width="2.5" stroke-linecap="square" fill="#69ADF7" fill-rule="nonzero" />
				</g>
			</g>
			<g>
				<g>
                    <path d="M327.3 297.5C 297.19998 328.5 247.69998 329.3 216.59999 299.2C 216.29999 298.90002 216.09999 298.7 215.79999 298.40002C 214.79999 297.40002 213.9 296.50003 212.99998 295.50003C 209.79999 291.90002 206.89998 288.10004 204.49998 284.10004C 200.89998 278.20004 198.09999 271.90002 196.09999 265.50003C 188.2 239.20003 194.4 209.60004 214.9 188.50003C 234.09999 168.70003 261.1 161.20003 286.3 166.20003C 292.4 167.40002 298.5 169.40002 304.19998 172.00003C 308.69998 174.10004 312.99997 176.70003 317.19998 179.70003C 318.3 180.50003 319.4 181.30003 320.49997 182.20003C 322.29996 183.60002 323.99997 185.10002 325.59998 186.80003C 356.6 216.9 357.4 266.4 327.3 297.5z" stroke="none" fill="#FFFFFF" fill-rule="nonzero" fill-opacity="0.6862745" />
                    <path d="M329.7 191.7C 326.30002 189.4 322.7 187.4 319.1 185.59999C 313.30002 182.9 307.30002 180.99998 301.2 179.79999C 276.1 174.79999 249.00002 182.29999 229.80002 202.09999C 209.40002 223.2 203.20001 252.79999 211.00002 279.09998C 212.90001 285.59998 215.70001 291.89996 219.40001 297.69998C 221.70001 301.4 224.3 304.9 227.20001 308.3C 223.40001 305.8 219.80002 302.8 216.40001 299.59998C 216.1 299.3 215.90001 299.09998 215.6 298.8C 214.6 297.8 213.70001 296.9 212.8 295.9C 209.6 292.3 206.7 288.5 204.3 284.5C 200.7 278.6 197.90001 272.3 195.90001 265.9C 188.00002 239.59999 194.20001 210 214.70001 188.9C 233.90001 169.09999 260.90002 161.59999 286.1 166.59999C 292.2 167.79999 298.30002 169.79999 304 172.4C 308.5 174.5 312.8 177.09999 317 180.09999C 318.1 180.9 319.2 181.7 320.3 182.59999C 322.09998 183.99998 323.8 185.49998 325.4 187.2C 326.9 188.7 328.3 190.2 329.7 191.7z" stroke="none" fill="#FFFFFF" fill-rule="nonzero" fill-opacity="0.9490196" />
                    <path d="M345.5 302L429 382.9C 434 387.69998 434.1 395.69998 429.3 400.69998C 424.5 405.69998 416.5 405.8 411.5 400.99997L411.5 400.99997L327.4 319.49997C 331.6 316.39996 335.6 312.89996 339.3 309.09998C 341.5 306.8 343.6 304.4 345.5 302z" stroke="#1E247E" stroke-width="6" stroke-linecap="square" fill="#DA867D" fill-rule="nonzero" />
                    <path d="M202.9 176.8C 166.4 214.5 167.29999 274.6 205 311.1C 238.8 343.9 290.7 346.5 327.4 319.4C 331.6 316.3 335.6 312.8 339.3 309C 341.5 306.7 343.59998 304.3 345.59998 301.9C 375.59998 264.1 372.69998 209 337.3 174.7C 299.6 138.3 239.4 139.2 202.9 176.8zM327.3 297.5C 297.19998 328.5 247.69998 329.3 216.59999 299.2C 185.5 269.10004 184.79999 219.6 214.9 188.50002C 245 157.40002 294.5 156.70001 325.59998 186.80002C 356.6 216.9 357.4 266.4 327.3 297.5z" stroke="#1E247E" stroke-width="6" stroke-linecap="square" fill="#F0C330" fill-rule="nonzero" />
				</g>
				<g>
                    <path d="M282.1 263.8L283.6 264.9C 283.6 264.9 283.6 265 283.6 265C 283.2 265.6 279.30002 272.1 275.5 276.2C 271.4 280.5 263.7 283.7 258.1 280.5C 252.5 277.3 255 269.3 255 269.3C 255 269.3 261.5 245.99998 263.7 239.09999C 265.90002 232.29999 265.40002 229.59999 263.7 228.2C 262.2 227 259.1 227.3 258.5 227.3C 258.5 227.3 258.4 227.3 258.4 227.2L258.4 227.2L259.19998 225C 259.19998 225 259.19998 225 259.3 225L259.3 225L281 221.4C 281.1 221.4 281.1 221.4 281.2 221.4L281.2 221.4L284.6 221.4C 284.6 221.4 284.7 221.4 284.7 221.5L284.7 221.5L271.90002 265.9C 271.90002 265.9 271.90002 265.9 271.90002 265.9C 271.90002 266 269.60004 271.9 271.90002 273.1C 271.9 273 274.9 275.8 282.1 263.8C 282.1 263.8 282.1 263.8 282.1 263.8z" stroke="#1E247E" stroke-width="3" stroke-linecap="square" fill="#1E247E" fill-rule="nonzero" />
                    <path d="M287.80002 205.5C 287.80002 208.01291 286.91156 210.1578 285.13467 211.93468C 283.3578 213.71158 281.21292 214.60002 278.7 214.6C 276.18713 214.60002 274.04224 213.71158 272.26535 211.93468C 270.48846 210.1578 269.6 208.01291 269.6 205.5C 269.6 202.9871 270.48846 200.84222 272.26535 199.06532C 274.04224 197.28845 276.18713 196.4 278.7 196.4C 281.21292 196.4 283.3578 197.28845 285.13467 199.06532C 286.91156 200.84222 287.80002 202.9871 287.80002 205.5C 287.80002 205.6059 287.79816 205.71176 287.79446 205.81758" stroke="#1E247E" stroke-width="3" stroke-linecap="square" fill="#1E247E" fill-rule="nonzero" />
				</g>
                <path d="M325 277.3C 319.8 285.9 312.4 293 303.5 297.8" stroke="#1E247E" stroke-width="3" stroke-linecap="square" fill="none" />
			</g>
			<g>
                <path d="M239.7 236.8C 232.9 236.40001 233 228.90001 233 228.90001C 232.8 237.20001 226 236.8 226 236.8C 226 236.8 233 237.5 233 244.5C 233.1 244.6 234 237.5 239.7 236.8" stroke="none" fill="#FFFFFF" fill-rule="nonzero" />
				<g>
                    <path d="M90.4 155.8C 86 155.6 86.1 150.7 86.1 150.7C 86 156.09999 81.6 155.8 81.6 155.8C 81.6 155.8 86.1 156.2 86.1 160.8C 86.1 160.8 86.6 156.2 90.4 155.8" stroke="none" fill="#FFFFFF" fill-rule="nonzero" />
                    <path d="M103.9 139.5C 94.8 139 95 128.9 95 128.9C 94.8 140.09999 85.6 139.5 85.6 139.5C 85.6 139.5 95 140.4 95 149.9C 95 149.8 96.2 140.4 103.9 139.5" stroke="none" fill="#FFFFFF" fill-rule="nonzero" />
				</g>
				<g>
                    <path d="M458.1 269.4C 453.7 269.19998 453.80002 264.3 453.80002 264.3C 453.7 269.69998 449.30002 269.4 449.30002 269.4C 449.30002 269.4 453.80002 269.8 453.80002 274.4C 453.8 274.4 454.3 269.8 458.1 269.4" stroke="none" fill="#FFFFFF" fill-rule="nonzero" />
                    <path d="M467.2 253.3C 458.1 252.8 458.30002 242.7 458.30002 242.7C 458.1 253.9 448.90002 253.3 448.90002 253.3C 448.90002 253.3 458.30002 254.2 458.30002 263.7C 458.3 263.6 459.5 254.2 467.2 253.3" stroke="none" fill="#FFFFFF" fill-rule="nonzero" />
				</g>
			</g>
		</g>
	</g>
</g>
</svg>