<?xml version="1.0" standalone="no"?>
<!DOCTYPE svg PUBLIC "-//W3C//DTD SVG 1.0//EN" "http://www.w3.org/TR/2001/REC-SVG-20010904/DTD/svg10.dtd">
<svg xmlns="http://www.w3.org/2000/svg" xmlns:xlink="http://www.w3.org/1999/xlink" id="body_1" width="80" height="80">

<g transform="matrix(0.15624756 0 0 0.15624756 0 0)">
	<g transform="matrix(1 0 0 1 1 1)">
        <path d="M374.799 502.471L152.276 502.471C 138.324 502.471 127.009 491.156 127.009 477.195L127.009 477.195L127.009 32.813C 127.009 18.853 138.324 7.5370007 152.276 7.5370007L152.276 7.5370007L374.8 7.5370007C 388.761 7.5370007 400.076 18.852001 400.076 32.813L400.076 32.813L400.076 477.19498C 400.075 491.156 388.76 502.471 374.799 502.471" stroke="none" fill="#FDCC00" fill-rule="nonzero" />
        <path d="M127.008 434.204L400.075 434.204L400.075 58.738L127.008 58.738L127.008 434.204" stroke="none" fill="#FFE100" fill-rule="nonzero" />
        <path d="M374.799 7.538L349.199 7.538C 363.16 7.538 374.475 18.853 374.475 32.814L374.475 32.814L374.475 477.19598C 374.475 491.15598 363.16 502.472 349.199 502.472L349.199 502.472L374.799 502.472C 388.76 502.472 400.075 491.15698 400.075 477.19598L400.075 477.19598L400.075 32.813C 400.075 18.853 388.76 7.538 374.799 7.538" stroke="none" fill="#FFA800" fill-rule="nonzero" />
        <path d="M152.284 7.538L177.884 7.538C 163.924 7.538 152.608 18.853 152.608 32.814L152.608 32.814L152.608 477.19598C 152.608 491.15598 163.923 502.472 177.884 502.472L177.884 502.472L152.284 502.472C 138.32399 502.472 127.007996 491.15698 127.007996 477.19598L127.007996 477.19598L127.007996 32.813C 127.008 18.853 138.323 7.538 152.284 7.538" stroke="none" fill="#FFFFFF" fill-rule="nonzero" />
        <path d="M476.61 272.071L357.673 272.071L340.60602 314.738L323.53903 272.071C 309.25403 272.071 297.67404 260.49103 297.67404 246.20601L297.67404 246.20601L297.67404 127.269C 297.67404 112.98399 309.25403 101.404 323.53903 101.404L323.53903 101.404L476.61 101.404C 490.895 101.404 502.47498 112.984 502.47498 127.269L502.47498 127.269L502.47498 246.207C 502.475 260.491 490.895 272.071 476.61 272.071" stroke="none" fill="#00DA6C" fill-rule="nonzero" />
        <path d="M33.406 357.404L152.344 357.404L169.411 400.07098L186.478 357.404C 200.763 357.404 212.343 345.824 212.343 331.539L212.343 331.539L212.343 212.602C 212.343 198.317 200.763 186.737 186.478 186.737L186.478 186.737L33.406 186.737C 19.120998 186.737 7.5409985 198.317 7.5409985 212.602L7.5409985 212.602L7.5409985 331.54C 7.542 345.825 19.121 357.404 33.406 357.404" stroke="none" fill="#63D3FD" fill-rule="nonzero" />
		<g>
            <path d="M67.275 272.071C 67.275 281.5 59.638 289.138 50.208 289.138C 40.778 289.138 33.141 281.501 33.141 272.071C 33.141 262.64203 40.778 255.00401 50.208 255.00401C 59.638 255.00401 67.275 262.641 67.275 272.071" stroke="none" fill="#00DA6C" fill-rule="nonzero" />
            <path d="M127.008 272.071C 127.008 281.5 119.371 289.138 109.941 289.138C 100.511 289.138 92.874 281.501 92.874 272.071C 92.874 262.64203 100.511 255.00401 109.941 255.00401C 119.371 255.00401 127.008 262.641 127.008 272.071" stroke="none" fill="#00DA6C" fill-rule="nonzero" />
            <path d="M186.742 272.071C 186.742 281.5 179.10501 289.138 169.675 289.138C 160.246 289.138 152.608 281.501 152.608 272.071C 152.608 262.64203 160.245 255.00401 169.675 255.00401C 179.104 255.004 186.742 262.641 186.742 272.071" stroke="none" fill="#00DA6C" fill-rule="nonzero" />
		</g>
        <path d="M451.275 181.814L445.11398 180.62799C 435.97498 178.87 431.77597 168.18599 437.28897 160.67699L437.28897 160.67699L441.15497 155.40298L432.80096 147.04898L427.60397 150.57298C 419.89798 155.79498 409.37698 151.20499 407.95996 141.99698L407.95996 141.99698L406.96997 135.53697L395.15097 135.53697L393.62396 143.48997C 391.89996 152.43297 381.60095 156.69998 374.05698 151.59697L374.05698 151.59697L367.34998 147.04897L358.99597 155.40297L362.86197 160.67697C 368.37497 168.18597 364.17596 178.86996 355.03696 180.62798L355.03696 180.62798L348.87595 181.81398L348.87595 193.63298L355.34393 194.62299C 364.54294 196.03899 369.13394 206.56099 363.91092 214.26698L363.91092 214.26698L360.38693 219.46399L368.74094 227.818L374.02295 223.944C 381.52396 218.44 392.20795 222.638 393.96494 231.778L393.96494 231.778L395.15094 237.939L406.96994 237.939L407.66995 233.39099C 409.11194 223.98698 420.01794 219.465 427.69794 225.09698L427.69794 225.09698L431.40994 227.81898L439.76395 219.46498L436.23996 214.26797C 431.01794 206.56198 435.60797 196.04097 444.80695 194.62398L444.80695 194.62398L451.27493 193.63397L451.275 181.814z" stroke="none" fill="#63D3FD" fill-rule="nonzero" />
        <path d="M476.619 101.404L451.01898 101.404C 465.304 101.404 476.88397 112.984 476.88397 127.269L476.88397 127.269L476.88397 246.207C 476.88397 260.492 465.304 272.072 451.01898 272.072L451.01898 272.072L476.619 272.072C 490.904 272.072 502.48398 260.492 502.48398 246.20699L502.48398 246.20699L502.48398 127.269C 502.484 112.984 490.904 101.404 476.619 101.404" stroke="none" fill="#00AD55" fill-rule="nonzero" />
        <path d="M33.406 186.695L59.005997 186.695C 44.720997 186.695 33.141 198.27501 33.141 212.56001L33.141 212.56001L33.141 331.49802C 33.141 345.78302 44.721 357.363 59.005997 357.363L59.005997 357.363L33.406 357.363C 19.120998 357.363 7.5409985 345.78302 7.5409985 331.49802L7.5409985 331.49802L7.5409985 212.559C 7.542 198.275 19.121 186.695 33.406 186.695" stroke="none" fill="#FFFFFF" fill-rule="nonzero" />
        <path d="M289.142 468.338C 289.142 482.47803 277.682 493.93802 263.542 493.93802C 249.402 493.93802 237.94199 482.47803 237.94199 468.338C 237.94199 454.198 249.402 442.738 263.542 442.738C 277.681 442.738 289.142 454.198 289.142 468.338" stroke="none" fill="#FFE100" fill-rule="nonzero" />
        <path d="M50.208 297.671C 36.094 297.671 24.608 286.185 24.608 272.07098C 24.608 257.95697 36.094 246.47098 50.208 246.47098C 64.322 246.47098 75.808 257.95697 75.808 272.07098C 75.808 286.185 64.322 297.671 50.208 297.671zM50.208 263.538C 45.506 263.538 41.675 267.361 41.675 272.07098C 41.675 276.78098 45.507 280.60397 50.208 280.60397C 54.909 280.60397 58.741 276.78098 58.741 272.07098C 58.741 267.361 54.91 263.538 50.208 263.538z" stroke="none" fill="#000000" fill-rule="nonzero" />
        <path d="M109.942 297.671C 95.828 297.671 84.342 286.185 84.342 272.07098C 84.342 257.95697 95.828 246.47098 109.942 246.47098C 124.056 246.47098 135.542 257.95697 135.542 272.07098C 135.542 286.185 124.056 297.671 109.942 297.671zM109.942 263.538C 105.24 263.538 101.409004 267.361 101.409004 272.07098C 101.409004 276.78098 105.241005 280.60397 109.942 280.60397C 114.643 280.60397 118.475 276.78098 118.475 272.07098C 118.475 267.361 114.643 263.538 109.942 263.538z" stroke="none" fill="#000000" fill-rule="nonzero" />
        <path d="M169.675 297.671C 155.561 297.671 144.075 286.185 144.075 272.07098C 144.075 257.95697 155.561 246.47098 169.675 246.47098C 183.789 246.47098 195.27501 257.95697 195.27501 272.07098C 195.275 286.185 183.789 297.671 169.675 297.671zM169.675 263.538C 164.973 263.538 161.142 267.361 161.142 272.07098C 161.142 276.78098 164.974 280.60397 169.675 280.60397C 174.377 280.60397 178.20801 276.78098 178.20801 272.07098C 178.20801 267.361 174.377 263.538 169.675 263.538z" stroke="none" fill="#000000" fill-rule="nonzero" />
        <path d="M297.675 41.671L255.008 41.671C 250.29799 41.671 246.47499 37.848 246.47499 33.138C 246.47499 28.428001 250.29799 24.605 255.008 24.605L255.008 24.605L297.675 24.605C 302.39398 24.605 306.20798 28.428 306.20798 33.138C 306.20798 37.848 302.394 41.671 297.675 41.671z" stroke="none" fill="#000000" fill-rule="nonzero" />
        <path d="M229.408 41.671L220.875 41.671C 216.165 41.671 212.342 37.848 212.342 33.138C 212.342 28.428001 216.165 24.605 220.875 24.605L220.875 24.605L229.408 24.605C 234.11801 24.605 237.94101 28.428 237.94101 33.138C 237.94101 37.848 234.119 41.671 229.408 41.671z" stroke="none" fill="#000000" fill-rule="nonzero" />
        <path d="M118.475 101.404C 113.765 101.404 109.942 97.581 109.942 92.871L109.942 92.871L109.942 84.338005C 109.942 79.628006 113.765 75.80501 118.475 75.80501C 123.185 75.80501 127.007996 79.628006 127.007996 84.338005L127.007996 84.338005L127.007996 92.871C 127.008 97.581 123.185 101.404 118.475 101.404z" stroke="none" fill="#000000" fill-rule="nonzero" />
        <path d="M118.475 135.538C 113.765 135.538 109.942 131.715 109.942 127.005L109.942 127.005L109.942 118.472C 109.942 113.762 113.765 109.939 118.475 109.939C 123.185 109.939 127.007996 113.762 127.007996 118.472L127.007996 118.472L127.007996 127.005C 127.008 131.715 123.185 135.538 118.475 135.538z" stroke="none" fill="#000000" fill-rule="nonzero" />
        <path d="M263.542 502.471C 244.71799 502.471 229.409 487.16202 229.409 468.338C 229.409 449.514 244.718 434.20502 263.542 434.20502C 282.366 434.20502 297.675 449.514 297.675 468.338C 297.675 487.162 282.366 502.471 263.542 502.471zM263.542 451.271C 254.12999 451.271 246.47499 458.925 246.47499 468.33798C 246.47499 477.75098 254.129 485.40497 263.542 485.40497C 272.95398 485.40497 280.60898 477.75098 280.60898 468.33798C 280.60898 458.925 272.954 451.271 263.542 451.271z" stroke="none" fill="#000000" fill-rule="nonzero" />
        <path d="M340.606 323.271C 337.116 323.271 333.98398 321.146 332.679 317.904L332.679 317.904L317.55798 280.076C 301.43 277.24298 289.14197 263.129 289.14197 246.20699L289.14197 246.20699L289.14197 127.269C 289.14197 108.298996 304.57898 92.871 323.53998 92.871L323.53998 92.871L476.61096 92.871C 495.58096 92.871 511.00897 108.299 511.00897 127.269L511.00897 127.269L511.00897 246.207C 511.00897 265.168 495.57196 280.605 476.61096 280.605L476.61096 280.605L363.45 280.605L348.534 317.90402C 347.237 321.146 344.096 323.271 340.606 323.271zM323.54 109.938C 313.983 109.938 306.209 117.712006 306.209 127.269005L306.209 127.269005L306.209 246.207C 306.209 255.764 313.983 263.538 323.54 263.538C 327.03 263.538 330.16202 265.663 331.467 268.905L331.467 268.905L340.60602 291.766L349.74503 268.905C 351.04202 265.662 354.18204 263.538 357.67203 263.538L357.67203 263.538L476.61005 263.538C 486.16705 263.538 493.94104 255.76399 493.94104 246.207L493.94104 246.207L493.94104 127.269C 493.94104 117.712 486.16705 109.937996 476.61005 109.937996L476.61005 109.937996L323.54 109.937996z" stroke="none" fill="#000000" fill-rule="nonzero" />
        <path d="M169.41 408.604C 165.92 408.604 162.78801 406.479 161.483 403.237L161.483 403.237L146.558 365.938L33.398 365.938C 14.428 365.938 -1 350.501 -1 331.54L-1 331.54L-1 212.602C -1 193.632 14.428 178.20401 33.398 178.20401L33.398 178.20401L186.469 178.20401C 205.439 178.20401 220.86699 193.632 220.86699 212.602L220.86699 212.602L220.86699 331.54C 220.86699 348.462 208.579 362.584 192.45099 365.417L192.45099 365.417L177.32098 403.245C 176.032 406.48 172.892 408.604 169.41 408.604zM33.406 195.271C 23.848999 195.271 16.074999 203.045 16.074999 212.60199L16.074999 212.60199L16.074999 331.54C 16.074999 341.09702 23.848999 348.871 33.406 348.871L33.406 348.871L152.344 348.871C 155.834 348.871 158.96599 350.996 160.271 354.238L160.271 354.238L169.41 377.099L178.54901 354.238C 179.84601 350.995 182.98601 348.871 186.47601 348.871C 196.03302 348.871 203.807 341.09702 203.807 331.54L203.807 331.54L203.807 212.602C 203.807 203.045 196.033 195.27101 186.47601 195.27101L186.47601 195.27101L33.406 195.27101z" stroke="none" fill="#000000" fill-rule="nonzero" />
        <path d="M374.799 511.004L152.284 511.004C 133.63899 511.004 118.475 495.84 118.475 477.195L118.475 477.195L118.475 357.404C 118.475 352.685 122.298 348.871 127.007996 348.871L127.007996 348.871L152.34299 348.871C 155.833 348.871 158.97299 350.996 160.26999 354.238L160.26999 354.238L169.409 377.099L178.548 354.238C 179.845 350.995 182.985 348.871 186.475 348.871C 196.03201 348.871 203.806 341.09702 203.806 331.54L203.806 331.54L203.806 212.602C 203.806 203.045 196.032 195.27101 186.475 195.27101L186.475 195.27101L127.006004 195.27101C 122.296005 195.27101 118.47301 191.44801 118.47301 186.738L118.47301 186.738L118.47301 32.813C 118.47301 14.167999 133.63701 -0.9959984 152.28201 -0.9959984L152.28201 -0.9959984L374.797 -0.9959984C 393.442 -0.9959984 408.606 14.168001 408.606 32.813L408.606 32.813L408.606 101.40401C 408.606 106.114006 404.792 109.937004 400.073 109.937004L400.073 109.937004L323.54 109.937004C 313.983 109.937004 306.209 117.711006 306.209 127.268005L306.209 127.268005L306.209 246.20601C 306.209 255.76302 313.983 263.53702 323.54 263.53702C 327.03 263.53702 330.16202 265.66202 331.467 268.90402L331.467 268.90402L340.60602 291.765L349.74503 268.90402C 351.04202 265.661 354.18204 263.53702 357.67203 263.53702L357.67203 263.53702L400.07404 263.53702C 404.79303 263.53702 408.60703 267.351 408.60703 272.07L408.60703 272.07L408.60703 477.194C 408.608 495.84 393.445 511.004 374.799 511.004zM135.542 365.938L135.542 477.19598C 135.542 486.429 143.05101 493.938 152.28401 493.938L152.28401 493.938L374.799 493.938C 384.032 493.938 391.54102 486.429 391.54102 477.19598L391.54102 477.19598L391.54102 280.604L363.45 280.604L348.534 317.903C 347.237 321.14603 344.097 323.27002 340.607 323.27002C 337.117 323.27002 333.985 321.14502 332.68 317.903L332.68 317.903L317.559 280.075C 301.431 277.242 289.143 263.12802 289.143 246.20601L289.143 246.20601L289.143 127.269C 289.143 108.298996 304.58002 92.871 323.54102 92.871L323.54102 92.871L391.54303 92.871L391.54303 32.813C 391.54303 23.58 384.03403 16.071 374.80103 16.071L374.80103 16.071L152.284 16.071C 143.051 16.071 135.54199 23.579998 135.54199 32.813L135.54199 32.813L135.54199 178.20401L186.47699 178.20401C 205.44699 178.20401 220.87498 193.632 220.87498 212.602L220.87498 212.602L220.87498 331.54C 220.87498 348.462 208.58699 362.584 192.46799 365.417L192.46799 365.417L177.33798 403.245C 176.04099 406.488 172.90099 408.612 169.41098 408.612C 165.92097 408.612 162.78098 406.487 161.48398 403.245L161.48398 403.245L146.55898 365.94598L135.54198 365.94598L135.54198 365.938z" stroke="none" fill="#000000" fill-rule="nonzero" />
        <path d="M400.075 442.738L127.008 442.738C 122.298004 442.738 118.475006 438.924 118.475006 434.20502L118.475006 434.20502L118.475006 357.40503C 118.475006 352.68604 122.298004 348.87204 127.008 348.87204L127.008 348.87204L152.343 348.87204C 155.83301 348.87204 158.973 350.99704 160.27 354.23904L160.27 354.23904L169.409 377.10004L178.548 354.23904C 179.845 350.99603 182.985 348.87204 186.475 348.87204C 196.03201 348.87204 203.806 341.09805 203.806 331.54105L203.806 331.54105L203.806 212.602C 203.806 203.045 196.032 195.27101 186.475 195.27101L186.475 195.27101L127.006004 195.27101C 122.296005 195.27101 118.47301 191.44801 118.47301 186.738L118.47301 186.738L118.47301 58.738007C 118.47301 54.028008 122.296005 50.205006 127.006004 50.205006L127.006004 50.205006L400.073 50.205006C 404.792 50.205006 408.606 54.028008 408.606 58.738007L408.606 58.738007L408.606 101.40501C 408.606 106.115005 404.792 109.938 400.073 109.938L400.073 109.938L323.54 109.938C 313.983 109.938 306.209 117.712006 306.209 127.269005L306.209 127.269005L306.209 246.207C 306.209 255.764 313.983 263.538 323.54 263.538C 327.03 263.538 330.16202 265.663 331.467 268.905L331.467 268.905L340.60602 291.766L349.74503 268.905C 351.04202 265.662 354.18204 263.538 357.67203 263.538L357.67203 263.538L400.07404 263.538C 404.79303 263.538 408.60703 267.352 408.60703 272.07098L408.60703 272.07098L408.60703 434.20398C 408.608 438.923 404.794 442.738 400.075 442.738zM135.542 425.671L391.542 425.671L391.542 280.604L363.45 280.604L348.534 317.903C 347.237 321.14603 344.097 323.27002 340.607 323.27002C 337.117 323.27002 333.985 321.14502 332.68 317.903L332.68 317.903L317.559 280.075C 301.431 277.242 289.143 263.12802 289.143 246.20601L289.143 246.20601L289.143 127.269C 289.143 108.298996 304.58002 92.871 323.54102 92.871L323.54102 92.871L391.54303 92.871L391.54303 67.271L135.54303 67.271L135.54303 178.20401L186.47803 178.20401C 205.44803 178.20401 220.87602 193.632 220.87602 212.602L220.87602 212.602L220.87602 331.54C 220.87602 348.462 208.58803 362.584 192.46902 365.417L192.46902 365.417L177.33902 403.245C 176.04202 406.488 172.90202 408.612 169.41202 408.612C 165.92201 408.612 162.78201 406.487 161.48502 403.245L161.48502 403.245L146.56001 365.94598L135.54301 365.94598L135.54301 425.671z" stroke="none" fill="#000000" fill-rule="nonzero" />
        <path d="M406.97 246.471L395.151 246.471C 391.063 246.471 387.539 243.56999 386.771 239.54199L386.771 239.54199L385.585 233.381C 385.20898 231.427 383.827 230.616 383.025 230.30899C 382.223 230.00198 380.66998 229.64299 379.074 230.82098L379.074 230.82098L373.792 234.69498C 370.396 237.17798 365.685 236.82797 362.707 233.84998L362.707 233.84998L354.353 225.49597C 351.46 222.60297 351.025 218.05498 353.329 214.66698L353.329 214.66698L356.853 209.46997C 357.962 207.83197 357.553 206.27898 357.22 205.49297C 356.879 204.71597 356.008 203.35997 354.046 203.05197L354.046 203.05197L347.586 202.06197C 343.422 201.42197 340.341 197.83797 340.341 193.63097L340.341 193.63097L340.341 181.81197C 340.341 177.72496 343.242 174.20897 347.262 173.43196L347.262 173.43196L353.423 172.24596C 355.377 171.86995 356.196 170.47995 356.503 169.68596C 356.80997 168.89197 357.16 167.32196 355.982 165.72696L355.982 165.72696L352.108 160.44496C 349.616 157.04897 349.983 152.33797 352.961 149.35995L352.961 149.35995L361.315 141.00595C 364.225 138.12195 368.756 137.69495 372.144 139.98195L372.144 139.98195L378.851 144.52995C 380.44702 145.61395 381.983 145.23795 382.759 144.92195C 383.527 144.59795 384.875 143.77895 385.251 141.86696L385.251 141.86696L386.77002 133.92195C 387.54703 129.90295 391.062 126.99295 395.15002 126.99295L395.15002 126.99295L406.96902 126.99295C 411.18402 126.99295 414.76 130.06496 415.40002 134.22894L415.40002 134.22894L416.39 140.68895C 416.68903 142.65195 418.05402 143.52194 418.83902 143.86295C 419.61603 144.21295 421.16003 144.61395 422.807 143.50494L422.807 143.50494L428.004 139.98094C 431.383 137.68494 435.94 138.11194 438.833 141.00494L438.833 141.00494L447.187 149.35895C 450.165 152.33694 450.532 157.03894 448.04 160.44395L448.04 160.44395L444.174 165.71796C 442.988 167.32196 443.338 168.89195 443.64502 169.68596C 443.95203 170.47997 444.77103 171.87096 446.717 172.24596L446.717 172.24596L452.88702 173.43196C 456.90604 174.20895 459.808 177.71596 459.808 181.81197L459.808 181.81197L459.808 193.63097C 459.808 197.84596 456.73602 201.42996 452.56302 202.06197L452.56302 202.06197L446.09503 203.05197C 444.14102 203.35898 443.27103 204.71597 442.92905 205.49297C 442.59604 206.27797 442.18704 207.83096 443.29605 209.46997L443.29605 209.46997L446.82004 214.66698C 449.12402 218.05498 448.68903 222.60298 445.79605 225.49597L445.79605 225.49597L437.44205 233.84998C 434.45505 236.82797 429.75305 237.17798 426.35706 234.69498L426.35706 234.69498L422.64505 231.97298C 421.00705 230.76997 419.41104 231.15398 418.60004 231.48698C 417.78903 231.81998 416.39804 232.68199 416.09103 234.68698L416.09103 234.68698L415.39102 239.24399C 414.761 243.399 411.177 246.471 406.97 246.471zM381.481 212.944C 384.10098 212.944 386.72897 213.43 389.25497 214.42C 394.70798 216.553 398.93198 220.752 401.10797 226.025C 403.33496 221.426 407.17496 217.74799 412.07297 215.717C 416.97098 213.677 422.29596 213.566 427.12598 215.239C 424.93298 209.974 424.95898 204.035 427.29697 198.676C 429.54996 193.50499 433.66296 189.545 438.74896 187.489C 433.76596 185.245 429.81497 181.14 427.76697 175.909C 425.71896 170.678 425.82095 164.969 427.96298 159.935C 422.86 161.872 417.17697 161.77 412.02298 159.517C 407.01398 157.332 403.14798 153.407 401.041 148.543C 399.00198 154.004 394.79498 158.416 389.29898 160.686C 383.78598 162.964 377.69397 162.819 372.40298 160.404C 374.349 165.319 374.391 170.832 372.40298 175.90901C 370.35498 181.14902 366.404 185.24402 361.421 187.48901C 366.507 189.54602 370.62 193.50502 372.873 198.67601C 375.11697 203.822 375.21997 209.505 373.3 214.60802C 375.892 213.507 378.673 212.944 381.481 212.944z" stroke="none" fill="#000000" fill-rule="nonzero" />
	</g>
</g>
</svg>