<?xml version="1.0" standalone="no"?>
<!DOCTYPE svg PUBLIC "-//W3C//DTD SVG 1.0//EN" "http://www.w3.org/TR/2001/REC-SVG-20010904/DTD/svg10.dtd">
<svg xmlns="http://www.w3.org/2000/svg" xmlns:xlink="http://www.w3.org/1999/xlink" id="body_1" width="160" height="160">

<g transform="matrix(0.15625 0 0 0.15625 0 0)">
    <path d="M371.712 869.888L309.76 932.352L309.76 947.712L714.24 947.712L714.24 932.352L652.28796 869.888L652.28796 869.376L371.712 869.376L371.712 869.888z" stroke="none" fill="#FFD561" fill-rule="nonzero" />
    <path d="M371.712 793.088L651.776 793.088L651.776 869.37604L371.712 869.37604L371.712 793.088z" stroke="none" fill="#FFA28D" fill-rule="nonzero" />
    <path d="M947.712 76.288L76.288 76.288C 50.688004 76.288 29.696003 97.28 29.696003 122.880005L29.696003 122.880005L29.696003 745.472C 29.696003 771.07196 50.688004 792.06396 76.288 792.06396L76.288 792.06396L372.224 792.06396L372.224 792.576L652.28796 792.576L652.28796 792.06396L948.224 792.06396C 973.824 792.06396 994.816 771.07196 994.816 745.472L994.816 745.472L994.816 122.88C 994.816 96.768 973.824 76.287994 947.712 76.287994L947.712 76.287994L947.712 76.288zM243.2 792.064L829.44 792.064L243.2 792.064zM932.352 667.648L91.648 667.648L91.648 138.24L932.352 138.24L932.352 667.648z" stroke="none" fill="#5FFFBA" fill-rule="nonzero" />
</g>
</svg>